<svg width="13" height="4" viewBox="0 0 13 4" fill="none" xmlns="http://www.w3.org/2000/svg"><path d="M1.756 0.802C2.18267 0.802 2.51867 0.919333 2.764 1.154C3.02 1.38867 3.148 1.70333 3.148 2.098C3.148 2.50333 3.02 2.82333 2.764 3.058C2.51867 3.282 2.18267 3.394 1.756 3.394C1.31867 3.394 0.977333 3.282 0.732 3.058C0.486667 2.82333 0.364 2.50333 0.364 2.098C0.364 1.70333 0.486667 1.38867 0.732 1.154C0.977333 0.919333 1.31867 0.802 1.756 0.802ZM6.256 0.802C6.68267 0.802 7.01867 0.919333 7.264 1.154C7.52 1.38867 7.648 1.70333 7.648 2.098C7.648 2.50333 7.52 2.82333 7.264 3.058C7.01867 3.282 6.68267 3.394 6.256 3.394C5.81867 3.394 5.47733 3.282 5.232 3.058C4.98667 2.82333 4.864 2.50333 4.864 2.098C4.864 1.70333 4.98667 1.38867 5.232 1.154C5.47733 0.919333 5.81867 0.802 6.256 0.802ZM10.756 0.802C11.1827 0.802 11.5187 0.919333 11.764 1.154C12.02 1.38867 12.148 1.70333 12.148 2.098C12.148 2.50333 12.02 2.82333 11.764 3.058C11.5187 3.282 11.1827 3.394 10.756 3.394C10.3187 3.394 9.97733 3.282 9.732 3.058C9.48667 2.82333 9.364 2.50333 9.364 2.098C9.364 1.70333 9.48667 1.38867 9.732 1.154C9.97733 0.919333 10.3187 0.802 10.756 0.802Z" fill="#9CA3AF"/></svg>
